<mxfile host="app.diagrams.net">
  <diagram name="経費管理システム ワイヤーフレーム" id="1">
    <mxGraphModel dx="1000" dy="1000" grid="1" gridSize="10" guides="1" tooltips="1" connect="1" arrows="1" fold="1" page="1" pageScale="1" pageWidth="827" pageHeight="1169" math="0" shadow="0">
      <root>
        <mxCell id="0"/>
        <mxCell id="1" parent="0"/>
        <!-- ホーム画面 -->
        <mxCell id="home" value="ホーム画面" style="swimlane;fillColor=#f5f5f5;" vertex="1" parent="1">
          <mxGeometry x="20" y="20" width="400" height="350" as="geometry"/>
        </mxCell>
        <mxCell id="dashboard" value="ダッシュボード（今月の経費/申請件数/処理率）" style="rounded=1;whiteSpace=wrap;html=1;fillColor=#e1f5fe;" vertex="1" parent="home">
          <mxGeometry x="20" y="40" width="360" height="60" as="geometry"/>
        </mxCell>
        <mxCell id="regbtn" value="経費を登録するボタン" style="rounded=1;whiteSpace=wrap;html=1;fillColor=#ffe0b2;" vertex="1" parent="home">
          <mxGeometry x="120" y="110" width="160" height="40" as="geometry"/>
        </mxCell>
        <mxCell id="recent" value="最近の経費リスト（テーブル）" style="rounded=1;whiteSpace=wrap;html=1;fillColor=#fff9c4;" vertex="1" parent="home">
          <mxGeometry x="20" y="170" width="360" height="120" as="geometry"/>
        </mxCell>
        <!-- 経費登録画面 -->
        <mxCell id="reg" value="経費登録画面" style="swimlane;fillColor=#f5f5f5;" vertex="1" parent="1">
          <mxGeometry x="450" y="20" width="300" height="200" as="geometry"/>
        </mxCell>
        <mxCell id="reg1" value="1件ずつ登録ボタン" style="rounded=1;whiteSpace=wrap;html=1;fillColor=#ffe0b2;" vertex="1" parent="reg">
          <mxGeometry x="70" y="40" width="160" height="40" as="geometry"/>
        </mxCell>
        <mxCell id="reg2" value="一括登録ボタン＋ファイルアップロード" style="rounded=1;whiteSpace=wrap;html=1;fillColor=#ffe0b2;" vertex="1" parent="reg">
          <mxGeometry x="40" y="100" width="220" height="40" as="geometry"/>
        </mxCell>
        <!-- 明細登録フォーム -->
        <mxCell id="form" value="明細登録フォーム" style="swimlane;fillColor=#f5f5f5;" vertex="1" parent="1">
          <mxGeometry x="20" y="400" width="400" height="250" as="geometry"/>
        </mxCell>
        <mxCell id="title" value="タイトル入力欄" style="rounded=1;whiteSpace=wrap;html=1;fillColor=#e1bee7;" vertex="1" parent="form">
          <mxGeometry x="30" y="40" width="340" height="30" as="geometry"/>
        </mxCell>
        <mxCell id="type" value="種別選択欄" style="rounded=1;whiteSpace=wrap;html=1;fillColor=#e1bee7;" vertex="1" parent="form">
          <mxGeometry x="30" y="80" width="340" height="30" as="geometry"/>
        </mxCell>
        <mxCell id="amount" value="金額入力欄" style="rounded=1;whiteSpace=wrap;html=1;fillColor=#e1bee7;" vertex="1" parent="form">
          <mxGeometry x="30" y="120" width="340" height="30" as="geometry"/>
        </mxCell>
        <mxCell id="remark" value="備考入力欄" style="rounded=1;whiteSpace=wrap;html=1;fillColor=#e1bee7;" vertex="1" parent="form">
          <mxGeometry x="30" y="160" width="340" height="30" as="geometry"/>
        </mxCell>
        <mxCell id="btns" value="戻る／登録するボタン" style="rounded=1;whiteSpace=wrap;html=1;fillColor=#ffe0b2;" vertex="1" parent="form">
          <mxGeometry x="100" y="200" width="200" height="30" as="geometry"/>
        </mxCell>
      </root>
    </mxGraphModel>
  </diagram>
</mxfile>
